<svg width="100" height="113" viewBox="0 0 100 113" fill="none" xmlns="http://www.w3.org/2000/svg">
<path d="M10 3C25.5 20.5 64.6 45 97 3" stroke="#2E386B" stroke-width="5" stroke-linecap="round"/>
<path d="M85 64C85 83.8822 69.5538 100 50.5 100C31.4462 100 16 83.8822 16 64C16 44.1177 31.4462 28 50.5 28C69.5538 28 85 44.1177 85 64Z" fill="#41EFCD"/>
<path d="M83.426 77.4728C90.3331 57.8889 80.0566 36.4137 60.4727 29.5066C40.8888 22.5994 19.4136 32.876 12.5065 52.4599C5.59929 72.0438 15.8759 93.519 35.4597 100.426C44.0924 103.471 53.0925 103.176 61.0504 100.218" stroke="#2E386B" stroke-width="4" stroke-linecap="round"/>
<path d="M85.5001 68.4998C93.0001 23.9998 39.4999 13.499 17.4998 41.4991" stroke="#2E386B" stroke-width="4" stroke-linecap="round"/>
<path d="M17 85.5C26 95 38.5 103 56 101" stroke="#2E386B" stroke-width="3" stroke-linecap="round"/>
</svg>
