<svg width="102" height="97" viewBox="0 0 102 97" fill="none" xmlns="http://www.w3.org/2000/svg">
<g clip-path="url(#clip0_954_4509)">
<path d="M78.5 61C90.9264 61 101 50.9264 101 38.5C101 26.0736 90.9264 16 78.5 16C66.0736 16 56 26.0736 56 38.5C56 50.9264 66.0736 61 78.5 61Z" fill="#80AEFF"/>
<path d="M91.0001 55.3803L91.8164 56.6388L91.8563 56.6129L91.8946 56.5845L91.0001 55.3803ZM61.0001 51.3803L62.2181 50.5049L62.147 50.4059L62.0608 50.3197L61.0001 51.3803ZM64.7001 23.2803C65.1972 22.6176 65.0628 21.6774 64.4001 21.1803C63.7374 20.6833 62.7972 20.8176 62.3001 21.4803L64.7001 23.2803ZM3.87831 20.5963C12.7167 14.213 27.8745 6.68787 44.5107 4.89666C61.0839 3.11223 79.0724 7.01171 93.8878 23.3867L96.1124 21.3739C80.5278 4.14885 61.5163 0.0483311 44.1895 1.9139C26.9257 3.77269 11.2835 11.5476 2.12183 18.1643L3.87831 20.5963ZM93.8878 23.3867C96.3417 26.0989 98.7185 31.3908 98.7859 37.2476C98.8524 43.0193 96.6796 49.2927 90.1056 54.1762L91.8946 56.5845C99.3206 51.068 101.862 43.8414 101.786 37.2131C101.71 30.6699 99.0871 24.6618 96.1124 21.3739L93.8878 23.3867ZM90.1838 54.1219C83.1359 58.6935 77.0464 58.9455 72.314 57.5422C67.5108 56.1179 63.9724 52.9457 62.2181 50.5049L59.7821 52.2558C61.8611 55.1483 65.9228 58.7761 71.4612 60.4185C77.0705 62.0818 84.0643 61.6672 91.8164 56.6388L90.1838 54.1219ZM62.0608 50.3197C58.9545 47.2134 54.3198 37.1207 64.7001 23.2803L62.3001 21.4803C51.0804 36.4399 55.7124 48.2139 59.9394 52.441L62.0608 50.3197Z" fill="#2E386B"/>
<path d="M97.6888 25.7285C98.0911 26.4527 99.0043 26.7136 99.7285 26.3113C100.453 25.909 100.714 24.9958 100.311 24.2716L97.6888 25.7285ZM30.0308 7.90289C39.0588 4.48701 52.4187 2.40148 65.3239 4.48097C78.1992 6.55566 90.4736 12.7412 97.6888 25.7285L100.311 24.2716C92.5264 10.2589 79.3008 3.69446 65.8011 1.51917C52.3313 -0.651315 38.4412 1.51313 28.9692 5.09702L30.0308 7.90289Z" fill="#2E386B"/>
<path d="M63.7005 52.4999L61.9999 54.5C55.9999 49.5 53.4845 40.0769 54.4999 35C55.4999 30 58.0339 22.1491 60.7006 19.3158C65.7006 16.3158 67.7006 20.8158 65.7006 22.8158L63.7006 24.8158C62 26.9999 61 29.4999 60.5 30.4999C55.7 42.0999 60.5 49.9999 63.7005 52.4999Z" fill="#2E386B"/>
<path d="M23.5 36C11.0736 36 1 46.0736 1 58.5C1 70.9264 11.0736 81 23.5 81C35.9264 81 46 70.9264 46 58.5C46 46.0736 35.9264 36 23.5 36Z" fill="#80AEFF"/>
<path d="M10.9999 41.6199L10.1836 40.3615L10.1437 40.3874L10.1054 40.4158L10.9999 41.6199ZM40.9999 45.6199L39.7819 46.4954L39.853 46.5944L39.9392 46.6806L40.9999 45.6199ZM37.2999 73.72C36.8028 74.3827 36.9372 75.3229 37.5999 75.82C38.2626 76.317 39.2028 76.1827 39.6999 75.52L37.2999 73.72ZM98.1217 76.404C89.2833 82.7873 74.1255 90.3124 57.4893 92.1036C40.9161 93.888 22.9276 89.9886 8.11225 73.6136L5.88763 75.6264C21.4722 92.8514 40.4837 96.9519 57.8105 95.0864C75.0743 93.2276 90.7165 85.4527 99.8781 78.836L98.1217 76.404ZM8.11225 73.6136C5.65835 70.9014 3.28158 65.6095 3.21411 59.7527C3.14762 53.981 5.32044 47.7076 11.8944 42.8241L10.1054 40.4158C2.67945 45.9323 0.137953 53.1589 0.21431 59.7872C0.289687 66.3304 2.91292 72.3385 5.88763 75.6264L8.11225 73.6136ZM11.8162 42.8784C18.8641 38.3068 24.9536 38.0547 29.686 39.458C34.4892 40.8824 38.0276 44.0546 39.7819 46.4954L42.2179 44.7445C40.1389 41.8519 36.0772 38.2242 30.5389 36.5818C24.9295 34.9185 17.9357 35.3331 10.1836 40.3615L11.8162 42.8784ZM39.9392 46.6806C43.0455 49.7869 47.6802 59.8796 37.2999 73.72L39.6999 75.52C50.9196 60.5604 46.2876 48.7864 42.0606 44.5593L39.9392 46.6806Z" fill="#2E386B"/>
<path d="M4.31126 71.2713C3.90894 70.5471 2.99574 70.2862 2.27156 70.6885C1.54738 71.0908 1.28647 72.004 1.68879 72.7282L4.31126 71.2713ZM71.9692 89.0969C62.9412 92.5128 49.5813 94.5983 36.6761 92.5188C23.8008 90.4441 11.5264 84.2586 4.31126 71.2713L1.68879 72.7282C9.47362 86.7409 22.6992 93.3053 36.1989 95.4806C49.6687 97.6511 63.5588 95.4867 73.0308 91.9028L71.9692 89.0969Z" fill="#2E386B"/>
<path d="M38.2995 44.5001L40.0001 42.5C46.0001 47.5 48.5155 56.9231 47.5001 62C46.5001 67 43.9661 74.8509 41.2994 77.6842C36.2994 80.6842 34.2994 76.1842 36.2994 74.1842L38.2994 72.1842C40 70.0001 41 67.5001 41.5 66.5001C46.3 54.9001 41.5 47.0001 38.2995 44.5001Z" fill="#2E386B"/>
</g>
<defs>
<clipPath id="clip0_954_4509">
<rect width="102" height="97" fill="white"/>
</clipPath>
</defs>
</svg>
