<svg width="35" height="35" viewBox="0 0 35 35" fill="none" xmlns="http://www.w3.org/2000/svg">
<path d="M33.9999 23.5C33.9999 29.305 29.3049 34 23.4999 34L25.0749 31.375" stroke="black" stroke-opacity="0.7" stroke-linecap="round" stroke-linejoin="round"/>
<path d="M1 11.5C1 5.695 5.695 1 11.5 1L9.925 3.625" stroke="black" stroke-opacity="0.7" stroke-linecap="round" stroke-linejoin="round"/>
<path d="M21.7751 22.5398C21.7751 27.6548 17.6351 31.7946 12.5201 31.7946C7.40514 31.7946 3.26514 27.6548 3.26514 22.5398C3.26514 17.4248 7.40514 13.2847 12.5201 13.2847C12.7601 13.2847 12.9851 13.2997 13.2401 13.3147C17.7851 13.6597 21.4151 17.2897 21.7601 21.8346C21.7601 22.0596 21.7751 22.2848 21.7751 22.5398Z" stroke="black" stroke-opacity="0.7" stroke-miterlimit="10" stroke-linecap="round" stroke-linejoin="round"/>
<path d="M31.75 12.5499C31.75 17.6649 27.61 21.8049 22.495 21.8049H21.76C21.415 17.2599 17.785 13.6299 13.24 13.2849V12.5499C13.24 7.43489 17.38 3.29492 22.495 3.29492C27.61 3.29492 31.75 7.43489 31.75 12.5499Z" stroke="black" stroke-opacity="0.7" stroke-miterlimit="10" stroke-linecap="round" stroke-linejoin="round"/>
<path d="M14.6795 23.8758C14.6795 24.331 14.5009 24.7602 14.177 25.0837C13.8534 25.4077 13.4243 25.5862 12.9691 25.5862H12.8939V26.2492C12.8939 26.3712 12.7949 26.4702 12.673 26.4702C12.551 26.4702 12.452 26.3712 12.452 26.2492V25.5862H12.4122C11.5402 25.5862 10.8096 24.9321 10.7119 24.0641C10.6982 23.943 10.7858 23.8339 10.9069 23.8197C11.0262 23.8078 11.1376 23.8935 11.1513 24.0146C11.2237 24.6585 11.7656 25.1443 12.4122 25.1443H12.9691C13.3063 25.1443 13.6241 25.0117 13.8645 24.7712C14.1049 24.5308 14.2375 24.213 14.2375 23.8758C14.2375 23.2946 13.8424 22.7881 13.2771 22.6449L11.9963 22.3272C11.6255 22.2335 11.294 22.0169 11.062 21.7177C10.8304 21.4242 10.7018 21.0508 10.7018 20.6676C10.7018 19.7244 11.469 18.9572 12.4122 18.9572H12.452V18.2942C12.452 18.1722 12.551 18.0732 12.673 18.0732C12.7949 18.0732 12.8939 18.1722 12.8939 18.2942V18.9572H12.9691C13.8411 18.9572 14.5716 19.6113 14.6693 20.4793C14.683 20.6004 14.5955 20.7096 14.4744 20.7237C14.3551 20.737 14.2441 20.6499 14.23 20.5288C14.1575 19.8849 13.6157 19.3991 12.9691 19.3991H12.4122C11.7126 19.3991 11.1437 19.9684 11.1437 20.6676C11.1437 20.9518 11.2383 21.228 11.4098 21.4454C11.5831 21.6686 11.8292 21.8291 12.1037 21.8985L13.3845 22.2162C14.1473 22.4094 14.6795 23.0918 14.6795 23.8758Z" fill="black"/>
<path d="M25.5702 15.8875C25.5243 15.774 25.3952 15.72 25.283 15.7651C24.8865 15.9247 24.468 16.0055 24.0397 16.0055C22.5998 16.0055 21.3747 15.0809 20.9185 13.7957H23.5973C23.7193 13.7957 23.8183 13.6967 23.8183 13.5747C23.8183 13.4527 23.7193 13.3537 23.5973 13.3537H20.7913C20.7475 13.1394 20.7245 12.918 20.7245 12.6908C20.7245 12.4636 20.7475 12.2422 20.7913 12.0278H23.5973C23.7193 12.0278 23.8183 11.9288 23.8183 11.8069C23.8183 11.6849 23.7193 11.5859 23.5973 11.5859H20.9181C21.3747 10.3006 22.5993 9.37605 24.0393 9.37605C24.4711 9.37605 24.8887 9.45825 25.2808 9.62001C25.3935 9.66642 25.5229 9.61339 25.5694 9.50024C25.6158 9.38754 25.5623 9.25807 25.4496 9.21166C25.0036 9.02736 24.5294 8.93408 24.0393 8.93408C22.3523 8.93408 20.9216 10.0523 20.4487 11.5859H19.1776C19.0557 11.5859 18.9567 11.6849 18.9567 11.8069C18.9567 11.9288 19.0557 12.0278 19.1776 12.0278H20.3449C20.3064 12.2435 20.2826 12.4641 20.2826 12.6908C20.2826 12.9175 20.306 13.1381 20.3449 13.3537H19.1776C19.0557 13.3537 18.9567 13.4527 18.9567 13.5747C18.9567 13.6967 19.0557 13.7957 19.1776 13.7957H20.4487C20.9216 15.3293 22.3523 16.4475 24.0393 16.4475C24.5245 16.4475 24.9983 16.3556 25.4478 16.1753C25.561 16.1297 25.6158 16.0007 25.5702 15.8875Z" fill="black"/>
</svg>
